<svg xmlns="http://www.w3.org/2000/svg" xmlns:xlink="http://www.w3.org/1999/xlink" width="673" zoomAndPan="magnify" viewBox="0 0 504.75 683.249979" height="911" preserveAspectRatio="xMidYMid meet" version="1.2"><defs><clipPath id="bd8d5c1e46"><path d="M 64.664062 111.199219 L 439.253906 111.199219 L 439.253906 485.789062 L 64.664062 485.789062 Z M 64.664062 111.199219 "/></clipPath><clipPath id="a3ef1fcde9"><path d="M 251.960938 111.199219 C 148.519531 111.199219 64.664062 195.054688 64.664062 298.496094 C 64.664062 401.933594 148.519531 485.789062 251.960938 485.789062 C 355.398438 485.789062 439.253906 401.933594 439.253906 298.496094 C 439.253906 195.054688 355.398438 111.199219 251.960938 111.199219 Z M 251.960938 111.199219 "/></clipPath><linearGradient x1="-0.00000115442" gradientTransform="matrix(1.463238,0,0,1.463238,64.665976,111.200193)" y1="128" x2="255.999987" gradientUnits="userSpaceOnUse" y2="128" id="f26bf98db1"><stop style="stop-color:#4f39f6;stop-opacity:1;" offset="0"/><stop style="stop-color:#4f39f6;stop-opacity:1;" offset="0.0078125"/><stop style="stop-color:#5039f6;stop-opacity:1;" offset="0.015625"/><stop style="stop-color:#5038f6;stop-opacity:1;" offset="0.0234375"/><stop style="stop-color:#5138f6;stop-opacity:1;" offset="0.03125"/><stop style="stop-color:#5238f6;stop-opacity:1;" offset="0.0390625"/><stop style="stop-color:#5237f6;stop-opacity:1;" offset="0.046875"/><stop style="stop-color:#5337f6;stop-opacity:1;" offset="0.0546875"/><stop style="stop-color:#5337f6;stop-opacity:1;" offset="0.0625"/><stop style="stop-color:#5436f6;stop-opacity:1;" offset="0.0703125"/><stop style="stop-color:#5436f6;stop-opacity:1;" offset="0.078125"/><stop style="stop-color:#5536f6;stop-opacity:1;" offset="0.0859375"/><stop style="stop-color:#5635f6;stop-opacity:1;" offset="0.09375"/><stop style="stop-color:#5635f6;stop-opacity:1;" offset="0.101562"/><stop style="stop-color:#5735f6;stop-opacity:1;" offset="0.109375"/><stop style="stop-color:#5734f7;stop-opacity:1;" offset="0.117188"/><stop style="stop-color:#5834f7;stop-opacity:1;" offset="0.125"/><stop style="stop-color:#5834f7;stop-opacity:1;" offset="0.132812"/><stop style="stop-color:#5934f7;stop-opacity:1;" offset="0.140625"/><stop style="stop-color:#5a33f7;stop-opacity:1;" offset="0.148438"/><stop style="stop-color:#5a33f7;stop-opacity:1;" offset="0.15625"/><stop style="stop-color:#5b33f7;stop-opacity:1;" offset="0.164063"/><stop style="stop-color:#5b32f7;stop-opacity:1;" offset="0.171875"/><stop style="stop-color:#5c32f7;stop-opacity:1;" offset="0.179687"/><stop style="stop-color:#5c32f7;stop-opacity:1;" offset="0.1875"/><stop style="stop-color:#5d31f7;stop-opacity:1;" offset="0.195312"/><stop style="stop-color:#5e31f7;stop-opacity:1;" offset="0.203125"/><stop style="stop-color:#5e31f7;stop-opacity:1;" offset="0.210938"/><stop style="stop-color:#5f30f7;stop-opacity:1;" offset="0.21875"/><stop style="stop-color:#5f30f7;stop-opacity:1;" offset="0.226562"/><stop style="stop-color:#6030f7;stop-opacity:1;" offset="0.234375"/><stop style="stop-color:#602ff7;stop-opacity:1;" offset="0.242188"/><stop style="stop-color:#612ff7;stop-opacity:1;" offset="0.25"/><stop style="stop-color:#622ff7;stop-opacity:1;" offset="0.257812"/><stop style="stop-color:#622ef7;stop-opacity:1;" offset="0.265625"/><stop style="stop-color:#632ef7;stop-opacity:1;" offset="0.273438"/><stop style="stop-color:#632ef7;stop-opacity:1;" offset="0.28125"/><stop style="stop-color:#642df7;stop-opacity:1;" offset="0.289062"/><stop style="stop-color:#642df7;stop-opacity:1;" offset="0.296875"/><stop style="stop-color:#652df7;stop-opacity:1;" offset="0.304687"/><stop style="stop-color:#662cf7;stop-opacity:1;" offset="0.3125"/><stop style="stop-color:#662cf7;stop-opacity:1;" offset="0.320313"/><stop style="stop-color:#672cf7;stop-opacity:1;" offset="0.328125"/><stop style="stop-color:#672bf7;stop-opacity:1;" offset="0.335938"/><stop style="stop-color:#682bf7;stop-opacity:1;" offset="0.34375"/><stop style="stop-color:#682bf7;stop-opacity:1;" offset="0.351562"/><stop style="stop-color:#692bf7;stop-opacity:1;" offset="0.359375"/><stop style="stop-color:#6a2af7;stop-opacity:1;" offset="0.367188"/><stop style="stop-color:#6a2af7;stop-opacity:1;" offset="0.375"/><stop style="stop-color:#6b2af8;stop-opacity:1;" offset="0.382812"/><stop style="stop-color:#6b29f8;stop-opacity:1;" offset="0.390625"/><stop style="stop-color:#6c29f8;stop-opacity:1;" offset="0.398438"/><stop style="stop-color:#6c29f8;stop-opacity:1;" offset="0.40625"/><stop style="stop-color:#6d28f8;stop-opacity:1;" offset="0.414062"/><stop style="stop-color:#6e28f8;stop-opacity:1;" offset="0.421875"/><stop style="stop-color:#6e28f8;stop-opacity:1;" offset="0.429688"/><stop style="stop-color:#6f27f8;stop-opacity:1;" offset="0.4375"/><stop style="stop-color:#6f27f8;stop-opacity:1;" offset="0.445312"/><stop style="stop-color:#7027f8;stop-opacity:1;" offset="0.453125"/><stop style="stop-color:#7026f8;stop-opacity:1;" offset="0.460937"/><stop style="stop-color:#7126f8;stop-opacity:1;" offset="0.46875"/><stop style="stop-color:#7226f8;stop-opacity:1;" offset="0.476563"/><stop style="stop-color:#7225f8;stop-opacity:1;" offset="0.484375"/><stop style="stop-color:#7325f8;stop-opacity:1;" offset="0.492188"/><stop style="stop-color:#7325f8;stop-opacity:1;" offset="0.5"/><stop style="stop-color:#7424f8;stop-opacity:1;" offset="0.507812"/><stop style="stop-color:#7424f8;stop-opacity:1;" offset="0.515625"/><stop style="stop-color:#7524f8;stop-opacity:1;" offset="0.523438"/><stop style="stop-color:#7623f8;stop-opacity:1;" offset="0.53125"/><stop style="stop-color:#7623f8;stop-opacity:1;" offset="0.539062"/><stop style="stop-color:#7723f8;stop-opacity:1;" offset="0.546875"/><stop style="stop-color:#7723f8;stop-opacity:1;" offset="0.554688"/><stop style="stop-color:#7822f8;stop-opacity:1;" offset="0.5625"/><stop style="stop-color:#7822f8;stop-opacity:1;" offset="0.570313"/><stop style="stop-color:#7922f8;stop-opacity:1;" offset="0.578125"/><stop style="stop-color:#7921f8;stop-opacity:1;" offset="0.585938"/><stop style="stop-color:#7a21f8;stop-opacity:1;" offset="0.59375"/><stop style="stop-color:#7b21f8;stop-opacity:1;" offset="0.601562"/><stop style="stop-color:#7b20f8;stop-opacity:1;" offset="0.609375"/><stop style="stop-color:#7c20f8;stop-opacity:1;" offset="0.617188"/><stop style="stop-color:#7c20f8;stop-opacity:1;" offset="0.625"/><stop style="stop-color:#7d1ff8;stop-opacity:1;" offset="0.632812"/><stop style="stop-color:#7d1ff9;stop-opacity:1;" offset="0.640625"/><stop style="stop-color:#7e1ff9;stop-opacity:1;" offset="0.648438"/><stop style="stop-color:#7f1ef9;stop-opacity:1;" offset="0.65625"/><stop style="stop-color:#7f1ef9;stop-opacity:1;" offset="0.664062"/><stop style="stop-color:#801ef9;stop-opacity:1;" offset="0.671875"/><stop style="stop-color:#801df9;stop-opacity:1;" offset="0.679688"/><stop style="stop-color:#811df9;stop-opacity:1;" offset="0.6875"/><stop style="stop-color:#811df9;stop-opacity:1;" offset="0.695312"/><stop style="stop-color:#821cf9;stop-opacity:1;" offset="0.703125"/><stop style="stop-color:#831cf9;stop-opacity:1;" offset="0.710938"/><stop style="stop-color:#831cf9;stop-opacity:1;" offset="0.71875"/><stop style="stop-color:#841bf9;stop-opacity:1;" offset="0.726562"/><stop style="stop-color:#841bf9;stop-opacity:1;" offset="0.734375"/><stop style="stop-color:#851bf9;stop-opacity:1;" offset="0.742188"/><stop style="stop-color:#851af9;stop-opacity:1;" offset="0.75"/><stop style="stop-color:#861af9;stop-opacity:1;" offset="0.757812"/><stop style="stop-color:#871af9;stop-opacity:1;" offset="0.765625"/><stop style="stop-color:#871af9;stop-opacity:1;" offset="0.773438"/><stop style="stop-color:#8819f9;stop-opacity:1;" offset="0.78125"/><stop style="stop-color:#8819f9;stop-opacity:1;" offset="0.789062"/><stop style="stop-color:#8919f9;stop-opacity:1;" offset="0.796875"/><stop style="stop-color:#8918f9;stop-opacity:1;" offset="0.804687"/><stop style="stop-color:#8a18f9;stop-opacity:1;" offset="0.8125"/><stop style="stop-color:#8b18f9;stop-opacity:1;" offset="0.820312"/><stop style="stop-color:#8b17f9;stop-opacity:1;" offset="0.828125"/><stop style="stop-color:#8c17f9;stop-opacity:1;" offset="0.835938"/><stop style="stop-color:#8c17f9;stop-opacity:1;" offset="0.84375"/><stop style="stop-color:#8d16f9;stop-opacity:1;" offset="0.851562"/><stop style="stop-color:#8d16f9;stop-opacity:1;" offset="0.859375"/><stop style="stop-color:#8e16f9;stop-opacity:1;" offset="0.867188"/><stop style="stop-color:#8f15f9;stop-opacity:1;" offset="0.875"/><stop style="stop-color:#8f15f9;stop-opacity:1;" offset="0.882812"/><stop style="stop-color:#9015f9;stop-opacity:1;" offset="0.890625"/><stop style="stop-color:#9014f9;stop-opacity:1;" offset="0.898437"/><stop style="stop-color:#9114fa;stop-opacity:1;" offset="0.90625"/><stop style="stop-color:#9114fa;stop-opacity:1;" offset="0.914062"/><stop style="stop-color:#9213fa;stop-opacity:1;" offset="0.921875"/><stop style="stop-color:#9313fa;stop-opacity:1;" offset="0.929688"/><stop style="stop-color:#9313fa;stop-opacity:1;" offset="0.9375"/><stop style="stop-color:#9412fa;stop-opacity:1;" offset="0.945312"/><stop style="stop-color:#9412fa;stop-opacity:1;" offset="0.953125"/><stop style="stop-color:#9512fa;stop-opacity:1;" offset="0.960938"/><stop style="stop-color:#9512fa;stop-opacity:1;" offset="0.96875"/><stop style="stop-color:#9611fa;stop-opacity:1;" offset="0.976562"/><stop style="stop-color:#9711fa;stop-opacity:1;" offset="0.984375"/><stop style="stop-color:#9711fa;stop-opacity:1;" offset="0.992188"/><stop style="stop-color:#9810fa;stop-opacity:1;" offset="1"/></linearGradient></defs><g id="6aacb059fa"><g clip-rule="nonzero" clip-path="url(#bd8d5c1e46)"><g clip-rule="nonzero" clip-path="url(#a3ef1fcde9)"><path style=" stroke:none;fill-rule:nonzero;fill:url(#f26bf98db1);" d="M 64.664062 111.199219 L 64.664062 485.789062 L 439.253906 485.789062 L 439.253906 111.199219 Z M 64.664062 111.199219 "/></g></g><g style="fill:#e2e8f6;fill-opacity:0.4;"><g transform="translate(167.070806, 419.538168)"><path style="stroke:none" d="M 177.296875 -74.03125 C 178.253906 -75.46875 179.457031 -75.46875 180.90625 -74.03125 C 182.351562 -73.0625 182.351562 -71.851562 180.90625 -70.40625 C 171.519531 -60.78125 161.347656 -53.859375 150.390625 -49.640625 C 139.441406 -45.429688 128.367188 -42.785156 117.171875 -41.703125 C 105.984375 -40.617188 94.972656 -39.957031 84.140625 -39.71875 C 81.484375 -39.71875 78.769531 -39.65625 76 -39.53125 C 73.238281 -39.414062 70.535156 -39.359375 67.890625 -39.359375 C 61.148438 -22.503906 54.53125 -10.109375 48.03125 -2.171875 C 43.207031 3.847656 38.269531 8.179688 33.21875 10.828125 C 28.164062 13.484375 23.472656 14.8125 19.140625 14.8125 C 14.566406 14.8125 10.832031 13.726562 7.9375 11.5625 C 3.601562 9.144531 1.078125 5.410156 0.359375 0.359375 C 0.117188 0.117188 0 -0.0546875 0 -0.171875 C 0 -0.296875 0 -0.359375 0 -0.359375 L 0 -1.4375 C -0.476562 -4.8125 0.242188 -8.1875 2.171875 -11.5625 C 6.984375 -20.707031 12.816406 -27.503906 19.671875 -31.953125 C 26.535156 -36.410156 34.0625 -39.601562 42.25 -41.53125 C 47.78125 -55.488281 53.976562 -73.78125 60.84375 -96.40625 C 67.707031 -119.039062 74.75 -145.222656 81.96875 -174.953125 C 89.1875 -204.679688 95.925781 -236.878906 102.1875 -271.546875 C 102.664062 -273.222656 103.628906 -274.304688 105.078125 -274.796875 C 107.722656 -275.753906 111.148438 -275.207031 115.359375 -273.15625 C 119.578125 -271.113281 122.648438 -269.253906 124.578125 -267.578125 C 127.222656 -265.410156 128.304688 -263.363281 127.828125 -261.4375 C 126.140625 -253.488281 123.910156 -243.070312 121.140625 -230.1875 C 118.378906 -217.3125 115.128906 -202.988281 111.390625 -187.21875 C 107.660156 -171.457031 103.566406 -155.148438 99.109375 -138.296875 C 94.660156 -121.441406 90.03125 -104.953125 85.21875 -88.828125 C 80.40625 -72.703125 75.347656 -58.019531 70.046875 -44.78125 C 72.453125 -44.78125 74.800781 -44.835938 77.09375 -44.953125 C 79.382812 -45.078125 81.734375 -45.140625 84.140625 -45.140625 C 94.972656 -45.378906 105.800781 -45.976562 116.625 -46.9375 C 127.457031 -47.90625 138.050781 -50.375 148.40625 -54.34375 C 158.757812 -58.3125 168.390625 -64.875 177.296875 -74.03125 Z M 30.6875 -17.328125 C 31.894531 -19.253906 33.28125 -21.722656 34.84375 -24.734375 C 36.40625 -27.742188 38.03125 -31.296875 39.71875 -35.390625 C 32.976562 -33.460938 26.835938 -30.507812 21.296875 -26.53125 C 15.765625 -22.5625 10.953125 -16.726562 6.859375 -9.03125 C 5.410156 -6.625 4.929688 -3.851562 5.421875 -0.71875 C 5.898438 0.96875 6.738281 1.8125 7.9375 1.8125 C 9.625 2.050781 12.515625 0.785156 16.609375 -1.984375 C 20.703125 -4.753906 25.394531 -9.867188 30.6875 -17.328125 Z M 30.6875 -17.328125 "/></g></g><g style="fill:#ffffff;fill-opacity:1;"><g transform="translate(164.198339, 416.665701)"><path style="stroke:none" d="M 177.296875 -74.03125 C 178.253906 -75.46875 179.457031 -75.46875 180.90625 -74.03125 C 182.351562 -73.0625 182.351562 -71.851562 180.90625 -70.40625 C 171.519531 -60.78125 161.347656 -53.859375 150.390625 -49.640625 C 139.441406 -45.429688 128.367188 -42.785156 117.171875 -41.703125 C 105.984375 -40.617188 94.972656 -39.957031 84.140625 -39.71875 C 81.484375 -39.71875 78.769531 -39.65625 76 -39.53125 C 73.238281 -39.414062 70.535156 -39.359375 67.890625 -39.359375 C 61.148438 -22.503906 54.53125 -10.109375 48.03125 -2.171875 C 43.207031 3.847656 38.269531 8.179688 33.21875 10.828125 C 28.164062 13.484375 23.472656 14.8125 19.140625 14.8125 C 14.566406 14.8125 10.832031 13.726562 7.9375 11.5625 C 3.601562 9.144531 1.078125 5.410156 0.359375 0.359375 C 0.117188 0.117188 0 -0.0546875 0 -0.171875 C 0 -0.296875 0 -0.359375 0 -0.359375 L 0 -1.4375 C -0.476562 -4.8125 0.242188 -8.1875 2.171875 -11.5625 C 6.984375 -20.707031 12.816406 -27.503906 19.671875 -31.953125 C 26.535156 -36.410156 34.0625 -39.601562 42.25 -41.53125 C 47.78125 -55.488281 53.976562 -73.78125 60.84375 -96.40625 C 67.707031 -119.039062 74.75 -145.222656 81.96875 -174.953125 C 89.1875 -204.679688 95.925781 -236.878906 102.1875 -271.546875 C 102.664062 -273.222656 103.628906 -274.304688 105.078125 -274.796875 C 107.722656 -275.753906 111.148438 -275.207031 115.359375 -273.15625 C 119.578125 -271.113281 122.648438 -269.253906 124.578125 -267.578125 C 127.222656 -265.410156 128.304688 -263.363281 127.828125 -261.4375 C 126.140625 -253.488281 123.910156 -243.070312 121.140625 -230.1875 C 118.378906 -217.3125 115.128906 -202.988281 111.390625 -187.21875 C 107.660156 -171.457031 103.566406 -155.148438 99.109375 -138.296875 C 94.660156 -121.441406 90.03125 -104.953125 85.21875 -88.828125 C 80.40625 -72.703125 75.347656 -58.019531 70.046875 -44.78125 C 72.453125 -44.78125 74.800781 -44.835938 77.09375 -44.953125 C 79.382812 -45.078125 81.734375 -45.140625 84.140625 -45.140625 C 94.972656 -45.378906 105.800781 -45.976562 116.625 -46.9375 C 127.457031 -47.90625 138.050781 -50.375 148.40625 -54.34375 C 158.757812 -58.3125 168.390625 -64.875 177.296875 -74.03125 Z M 30.6875 -17.328125 C 31.894531 -19.253906 33.28125 -21.722656 34.84375 -24.734375 C 36.40625 -27.742188 38.03125 -31.296875 39.71875 -35.390625 C 32.976562 -33.460938 26.835938 -30.507812 21.296875 -26.53125 C 15.765625 -22.5625 10.953125 -16.726562 6.859375 -9.03125 C 5.410156 -6.625 4.929688 -3.851562 5.421875 -0.71875 C 5.898438 0.96875 6.738281 1.8125 7.9375 1.8125 C 9.625 2.050781 12.515625 0.785156 16.609375 -1.984375 C 20.703125 -4.753906 25.394531 -9.867188 30.6875 -17.328125 Z M 30.6875 -17.328125 "/></g></g></g></svg>